Normalized EMG Linear Envelopes
nRows=172
nColumns=4

endheader
time	 med_gas_r	  soleus_r	 tib_ant_r	
1.74989	  0.093206	  0.101764	  0.032214	
1.81238	  0.091575	  0.100030	  0.033076	
1.87488	  0.090144	  0.099785	  0.033634	
1.93738	  0.089549	  0.102769	  0.033851	
1.99987	  0.090218	  0.109041	  0.033798	
2.06237	  0.091885	  0.115233	  0.033552	
2.12486	  0.094322	  0.117660	  0.033331	
2.18736	  0.097455	  0.116821	  0.033495	
2.24986	  0.099917	  0.116199	  0.034329	
2.31235	  0.099200	  0.117342	  0.035675	
2.37485	  0.094445	  0.118385	  0.036820	
2.43734	  0.088051	  0.117220	  0.037101	
2.49984	  0.083706	  0.114363	  0.036636	
2.56234	  0.083101	  0.111926	  0.036046	
2.62483	  0.085094	  0.110952	  0.035607	
2.68733	  0.088050	  0.111165	  0.035175	
2.74982	  0.091496	  0.112383	  0.034833	
2.81232	  0.094904	  0.114351	  0.034998	
2.87482	  0.097068	  0.116257	  0.035699	
2.93731	  0.097690	  0.118520	  0.036252	
2.99981	  0.097741	  0.123045	  0.036003	
3.0623	  0.097965	  0.129665	  0.035115	
3.1248	  0.098376	  0.134949	  0.034374	
3.1873	  0.098618	  0.135416	  0.034336	
3.24979	  0.097885	  0.129967	  0.034843	
3.31229	  0.095463	  0.120410	  0.035401	
3.37478	  0.091817	  0.110922	  0.035780	
3.43728	  0.088414	  0.105457	  0.035916	
3.49978	  0.086492	  0.105213	  0.035627	
3.56227	  0.086183	  0.108686	  0.034808	
3.62477	  0.086599	  0.113101	  0.033688	
3.68726	  0.086901	  0.116090	  0.032754	
3.74976	  0.087256	  0.117034	  0.032526	
3.81226	  0.088409	  0.116666	  0.033199	
3.87475	  0.090644	  0.115557	  0.034517	
3.93725	  0.093527	  0.114279	  0.036037	
3.99974	  0.095888	  0.114239	  0.037270	
4.06224	  0.096048	  0.116111	  0.037705	
4.12474	  0.093395	  0.118153	  0.037186	
4.18723	  0.089485	  0.117843	  0.036237	
4.24973	  0.086445	  0.114874	  0.035576	
4.31222	  0.084932	  0.111510	  0.035332	
4.37472	  0.084575	  0.109926	  0.035103	
4.43722	  0.085211	  0.110188	  0.034661	
4.49971	  0.086666	  0.111102	  0.034227	
4.56221	  0.088177	  0.111524	  0.034110	
4.6247	  0.088726	  0.110653	  0.034293	
4.6872	  0.087979	  0.108634	  0.034485	
4.7497	  0.086845	  0.106890	  0.034538	
4.81219	  0.086572	  0.107006	  0.034466	
4.87469	  0.087312	  0.109355	  0.034187	
4.93718	  0.088502	  0.112373	  0.033859	
4.99968	  0.090505	  0.113211	  0.034428	
5.06218	  0.094467	  0.110443	  0.037650	
5.12467	  0.100425	  0.106144	  0.045305	
5.18717	  0.106996	  0.104463	  0.057170	
5.24966	  0.113288	  0.109634	  0.069755	
5.31216	  0.119875	  0.126306	  0.079124	
5.37466	  0.126907	  0.156679	  0.085315	
5.43715	  0.132349	  0.192190	  0.092215	
5.49965	  0.134468	  0.215084	  0.103033	
5.56214	  0.134989	  0.217796	  0.117457	
5.62464	  0.137398	  0.214165	  0.132857	
5.68714	  0.144127	  0.220990	  0.146101	
5.74963	  0.156827	  0.233409	  0.154334	
5.81213	  0.175527	  0.230872	  0.156554	
5.87462	  0.194443	  0.206438	  0.155195	
5.93712	  0.204175	  0.175160	  0.155624	
5.99962	  0.203572	  0.152676	  0.163479	
6.06211	  0.201017	  0.140966	  0.180689	
6.12461	  0.201882	  0.135097	  0.204218	
6.1871	  0.207021	  0.131770	  0.229834	
6.2496	  0.216775	  0.130314	  0.254764	
6.3121	  0.226735	  0.130915	  0.277188	
6.37459	  0.233001	  0.133324	  0.298415	
6.43709	  0.238068	  0.136104	  0.323572	
6.49958	  0.240518	  0.137539	  0.354561	
6.56208	  0.237571	  0.137688	  0.385835	
6.62458	  0.237563	  0.137979	  0.410162	
6.68707	  0.246690	  0.139196	  0.425272	
6.74957	  0.255757	  0.141214	  0.434190	
6.81206	  0.254511	  0.143071	  0.439780	
6.87456	  0.242769	  0.142811	  0.441750	
6.93706	  0.226451	  0.138970	  0.440359	
6.99955	  0.213914	  0.131901	  0.435640	
7.06205	  0.211154	  0.123635	  0.424918	
7.12454	  0.218063	  0.117666	  0.410385	
7.18704	  0.229972	  0.117205	  0.401694	
7.24954	  0.241365	  0.122241	  0.405291	
7.31203	  0.252636	  0.129921	  0.417065	
7.37453	  0.269505	  0.136915	  0.426393	
7.43702	  0.292521	  0.140111	  0.429070	
7.49952	  0.314998	  0.138530	  0.432237	
7.56202	  0.327954	  0.135916	  0.438973	
7.62451	  0.326468	  0.138420	  0.440963	
7.68701	  0.318447	  0.150098	  0.434489	
7.7495	  0.316535	  0.170233	  0.428646	
7.812	  0.319592	  0.190807	  0.433055	
7.8745	  0.316612	  0.199456	  0.447472	
7.93699	  0.305083	  0.191665	  0.464791	
7.99949	  0.295077	  0.176860	  0.476705	
8.06198	  0.295598	  0.167858	  0.475526	
8.12448	  0.303480	  0.167674	  0.458843	
8.18698	  0.310946	  0.168609	  0.434564	
8.24947	  0.316881	  0.162620	  0.415493	
8.31197	  0.323629	  0.150592	  0.409475	
8.37446	  0.328631	  0.139690	  0.416711	
8.43696	  0.327403	  0.135462	  0.432739	
8.49946	  0.321843	  0.139617	  0.452542	
8.56195	  0.315980	  0.149780	  0.471740	
8.62445	  0.309916	  0.159395	  0.483401	
8.68694	  0.305001	  0.163313	  0.479085	
8.74944	  0.303140	  0.162079	  0.459719	
8.81194	  0.302153	  0.157903	  0.439814	
8.87443	  0.301393	  0.152379	  0.429939	
8.93693	  0.305290	  0.148669	  0.421528	
8.99942	  0.317875	  0.148831	  0.400485	
9.06192	  0.337960	  0.150604	  0.367665	
9.12442	  0.359731	  0.151176	  0.337792	
9.18691	  0.376707	  0.150093	  0.326260	
9.24941	  0.385166	  0.146369	  0.340122	
9.3119	  0.385544	  0.138393	  0.373008	
9.3744	  0.381943	  0.128520	  0.406316	
9.4369	  0.377857	  0.122572	  0.422314	
9.49939	  0.371253	  0.123976	  0.417961	
9.56189	  0.358843	  0.132442	  0.404351	
9.62438	  0.343130	  0.146499	  0.396095	
9.68688	  0.328774	  0.162572	  0.400662	
9.74938	  0.317418	  0.173592	  0.413060	
9.81187	  0.309226	  0.173041	  0.423266	
9.87437	  0.305510	  0.160691	  0.429271	
9.93686	  0.308279	  0.143127	  0.436134	
9.99936	  0.315055	  0.128667	  0.445618	
10.0619	  0.318942	  0.122213	  0.454435	
10.1244	  0.317651	  0.123529	  0.460257	
10.1868	  0.314260	  0.128015	  0.464723	
10.2493	  0.308652	  0.129858	  0.467269	
10.3118	  0.297545	  0.126394	  0.459752	
10.3743	  0.282240	  0.119235	  0.436859	
10.4368	  0.267671	  0.112061	  0.406367	
10.4993	  0.257465	  0.109119	  0.380595	
10.5618	  0.256198	  0.113681	  0.366060	
10.6243	  0.264729	  0.124762	  0.362929	
10.6868	  0.273484	  0.136974	  0.367647	
10.7493	  0.274500	  0.145676	  0.379654	
10.8118	  0.269833	  0.150056	  0.401811	
10.8743	  0.263124	  0.150324	  0.427787	
10.9368	  0.257028	  0.145473	  0.440377	
10.9993	  0.255114	  0.135641	  0.426079	
11.0618	  0.258041	  0.124107	  0.383731	
11.1243	  0.260103	  0.115523	  0.324655	
11.1868	  0.253570	  0.113053	  0.267628	
11.2493	  0.239309	  0.116341	  0.226361	
11.3118	  0.226824	  0.121981	  0.201747	
11.3743	  0.223230	  0.127314	  0.186515	
11.4368	  0.227323	  0.132539	  0.173741	
11.4993	  0.229654	  0.138051	  0.161707	
11.5618	  0.221920	  0.142297	  0.152923	
11.6243	  0.208148	  0.143494	  0.149116	
11.6868	  0.197798	  0.141750	  0.147204	
11.7492	  0.195831	  0.139023	  0.141799	
11.8117	  0.202840	  0.137187	  0.132233	
11.8742	  0.213488	  0.135857	  0.123557	
11.9367	  0.219510	  0.133197	  0.119761	
11.9992	  0.217073	  0.128954	  0.119450	
12.0617	  0.207356	  0.124523	  0.119002	
12.1242	  0.196635	  0.120355	  0.117552	
12.1867	  0.192474	  0.115787	  0.116649	
12.2492	  0.196636	  0.111547	  0.116075	
12.3117	  0.208715	  0.110643	  0.112932	
12.3742	  0.228934	  0.115626	  0.104990	
12.4367	  0.254171	  0.125282	  0.093329	
